<?xml version="1.0" encoding="UTF-8"?>
<svg width="180px" height="180px" viewBox="0 0 180 180" version="1.1" xmlns="http://www.w3.org/2000/svg" xmlns:xlink="http://www.w3.org/1999/xlink">
    <!-- Generator: Sketch 63.1 (92452) - https://sketch.com -->
    <title>Icon</title>
    <desc>Created with Sketch.</desc>
    <defs>
        <path d="M51.3778558,-2.07572687e-15 L128.622144,2.07572687e-15 C146.487344,-1.20605709e-15 152.965697,1.86013822 159.496947,5.35308895 C166.028197,8.84603967 171.15396,13.9718029 174.646911,20.5030529 C178.139862,27.0343029 180,33.512656 180,51.3778558 L180,128.622144 C180,146.487344 178.139862,152.965697 174.646911,159.496947 C171.15396,166.028197 166.028197,171.15396 159.496947,174.646911 C152.965697,178.139862 146.487344,180 128.622144,180 L51.3778558,180 C33.512656,180 27.0343029,178.139862 20.5030529,174.646911 C13.9718029,171.15396 8.84603967,166.028197 5.35308895,159.496947 C1.86013822,152.965697 8.04038057e-16,146.487344 -1.38381791e-15,128.622144 L1.38381791e-15,51.3778558 C-8.04038057e-16,33.512656 1.86013822,27.0343029 5.35308895,20.5030529 C8.84603967,13.9718029 13.9718029,8.84603967 20.5030529,5.35308895 C27.0343029,1.86013822 33.512656,1.20605709e-15 51.3778558,-2.07572687e-15 Z" id="path-1"></path>
        <filter x="-4.2%" y="-4.2%" width="108.3%" height="108.3%" filterUnits="objectBoundingBox" id="filter-3">
            <feOffset dx="0" dy="0" in="SourceAlpha" result="shadowOffsetOuter1"></feOffset>
            <feGaussianBlur stdDeviation="2.5" in="shadowOffsetOuter1" result="shadowBlurOuter1"></feGaussianBlur>
            <feColorMatrix values="0 0 0 0 0   0 0 0 0 0   0 0 0 0 0  0 0 0 0.2 0" type="matrix" in="shadowBlurOuter1"></feColorMatrix>
        </filter>
        <linearGradient x1="50%" y1="0%" x2="50%" y2="49.4510135%" id="linearGradient-4">
            <stop stop-color="#213361" offset="0%"></stop>
            <stop stop-color="#192239" offset="100%"></stop>
        </linearGradient>
        <path d="M79.6640625,147.65625 L79.6640625,142.93125 L66.965625,142.93125 L66.965625,117.7875 L61.65,117.7875 L61.65,147.65625 L79.6640625,147.65625 Z M89.071875,148.1625 C90.675,148.1625 92.0460938,147.874219 93.1851563,147.297656 C94.3242188,146.721094 95.34375,145.771875 96.24375,144.45 L96.24375,144.45 L96.328125,144.45 C96.328125,144.984375 96.35625,145.532812 96.4125,146.095313 C96.46875,146.657813 96.5390625,147.178125 96.6234375,147.65625 L96.6234375,147.65625 L99.196875,147.65625 C99.084375,147.09375 99,146.404687 98.94375,145.589063 C98.8875,144.773438 98.859375,143.985938 98.859375,143.226562 L98.859375,143.226562 L98.859375,134.578125 C98.859375,133.36875 98.6625,132.314063 98.26875,131.414062 C97.875,130.514063 97.3265625,129.76875 96.6234375,129.178125 C95.9203125,128.5875 95.1046875,128.144531 94.1765625,127.849219 C93.2484375,127.553906 92.25,127.40625 91.18125,127.40625 C89.49375,127.40625 87.9820313,127.673437 86.6460938,128.207812 C85.3101563,128.742188 84.234375,129.417188 83.41875,130.232812 L83.41875,130.232812 L85.021875,132.13125 C85.725,131.428125 86.5828125,130.865625 87.5953125,130.44375 C88.6078125,130.021875 89.7046875,129.810937 90.8859375,129.810937 C92.6015625,129.810937 93.909375,130.232812 94.809375,131.076563 C95.709375,131.920312 96.159375,133.2 96.159375,134.915625 L96.159375,134.915625 L96.159375,135.548438 C94.359375,135.548438 92.6226563,135.611719 90.9492188,135.738281 C89.2757813,135.864844 87.7921875,136.146094 86.4984375,136.582031 C85.2046875,137.017969 84.1710937,137.678906 83.3976563,138.564844 C82.6242188,139.450781 82.2375,140.653125 82.2375,142.171875 C82.2375,143.26875 82.4554688,144.196875 82.8914063,144.95625 C83.3273437,145.715625 83.8757813,146.334375 84.5367188,146.8125 C85.1976562,147.290625 85.9289063,147.635156 86.7304688,147.846094 C87.5320313,148.057031 88.3125,148.1625 89.071875,148.1625 Z M89.83125,145.8 C89.26875,145.8 88.7132812,145.736719 88.1648438,145.610156 C87.6164062,145.483594 87.1171875,145.272656 86.6671875,144.977344 C86.2171875,144.682031 85.8585937,144.295312 85.5914063,143.817187 C85.3242188,143.339062 85.190625,142.748437 85.190625,142.045312 C85.190625,141.117188 85.5,140.371875 86.11875,139.809375 C86.7375,139.246875 87.5320313,138.817969 88.5023437,138.522656 C89.4726562,138.227344 90.5554688,138.030469 91.7507813,137.932031 C92.9460938,137.833594 94.134375,137.784375 95.315625,137.784375 L95.315625,137.784375 L96.159375,137.784375 L96.159375,139.260938 C96.159375,140.132812 96.01875,140.9625 95.7375,141.75 C95.45625,142.5375 95.0484375,143.233594 94.5140625,143.838281 C93.9796875,144.442969 93.31875,144.921094 92.53125,145.272656 C91.74375,145.624219 90.84375,145.8 89.83125,145.8 Z M116.746875,148.1625 C118.29375,148.1625 119.692969,147.895312 120.944531,147.360937 C122.196094,146.826562 123.264844,146.095313 124.150781,145.167188 C125.036719,144.239062 125.725781,143.142188 126.217969,141.876563 C126.710156,140.610937 126.95625,139.246875 126.95625,137.784375 C126.95625,136.321875 126.710156,134.957812 126.217969,133.692187 C125.725781,132.426562 125.036719,131.329688 124.150781,130.401563 C123.264844,129.473438 122.196094,128.742188 120.944531,128.207812 C119.692969,127.673437 118.29375,127.40625 116.746875,127.40625 C115.3125,127.40625 113.920313,127.736719 112.570312,128.397656 C111.220313,129.058594 110.123438,130.035937 109.279688,131.329688 L109.279688,131.329688 L109.195312,131.329688 L109.195312,115.7625 L106.326562,115.7625 L106.326562,147.65625 L109.195312,147.65625 L109.195312,144.323437 L109.279688,144.323437 C110.123438,145.589063 111.220313,146.545312 112.570312,147.192187 C113.920313,147.839062 115.3125,148.1625 116.746875,148.1625 Z M116.451562,145.715625 C115.354687,145.715625 114.342187,145.511719 113.414062,145.103906 C112.485938,144.696094 111.684375,144.140625 111.009375,143.4375 C110.334375,142.734375 109.807031,141.897656 109.427344,140.927344 C109.047656,139.957031 108.857812,138.909375 108.857812,137.784375 C108.857812,136.659375 109.047656,135.611719 109.427344,134.641406 C109.807031,133.671094 110.334375,132.827344 111.009375,132.110156 C111.684375,131.392969 112.485938,130.830469 113.414062,130.422656 C114.342187,130.014844 115.354687,129.810937 116.451562,129.810937 C117.632812,129.810937 118.6875,130.021875 119.615625,130.44375 C120.54375,130.865625 121.324219,131.435156 121.957031,132.152344 C122.589844,132.869531 123.075,133.713281 123.4125,134.683594 C123.75,135.653906 123.91875,136.6875 123.91875,137.784375 C123.91875,138.88125 123.75,139.914844 123.4125,140.885156 C123.075,141.855469 122.589844,142.699219 121.957031,143.416406 C121.324219,144.133594 120.54375,144.696094 119.615625,145.103906 C118.6875,145.511719 117.632812,145.715625 116.451562,145.715625 Z M138.726562,148.1625 C139.626563,148.1625 140.519531,148.057031 141.405469,147.846094 C142.291406,147.635156 143.085938,147.283594 143.789062,146.791406 C144.492188,146.299219 145.061719,145.666406 145.497656,144.892969 C145.933594,144.119531 146.151563,143.170312 146.151563,142.045312 C146.151563,140.498437 145.596094,139.267969 144.485156,138.353906 C143.374219,137.439844 141.651563,136.74375 139.317187,136.265625 C137.685938,135.928125 136.490625,135.513281 135.73125,135.021094 C134.971875,134.528906 134.592188,133.81875 134.592188,132.890625 C134.592188,132.35625 134.711719,131.892188 134.950781,131.498437 C135.189844,131.104687 135.50625,130.78125 135.9,130.528125 C136.29375,130.275 136.74375,130.092187 137.25,129.979688 C137.75625,129.867188 138.2625,129.810937 138.76875,129.810937 C139.865625,129.810937 140.842969,130.071094 141.700781,130.591406 C142.558594,131.111719 143.198438,131.779687 143.620313,132.595312 L143.620313,132.595312 L145.814063,130.95 C145.167188,129.825 144.196875,128.953125 142.903125,128.334375 C141.609375,127.715625 140.273438,127.40625 138.895313,127.40625 C137.995313,127.40625 137.123438,127.51875 136.279688,127.74375 C135.435937,127.96875 134.683594,128.313281 134.022656,128.777344 C133.361719,129.241406 132.834375,129.832031 132.440625,130.549219 C132.046875,131.266406 131.85,132.13125 131.85,133.14375 C131.85,134.071875 132.032813,134.845313 132.398438,135.464063 C132.764063,136.082812 133.228125,136.596094 133.790625,137.003906 C134.353125,137.411719 134.964844,137.721094 135.625781,137.932031 C136.286719,138.142969 136.9125,138.31875 137.503125,138.459375 C139.3875,138.909375 140.828906,139.394531 141.827344,139.914844 C142.825781,140.435156 143.325,141.215625 143.325,142.25625 C143.325,142.903125 143.198438,143.444531 142.945312,143.880469 C142.692187,144.316406 142.354688,144.675 141.932813,144.95625 C141.510938,145.2375 141.01875,145.434375 140.45625,145.546875 C139.89375,145.659375 139.303125,145.715625 138.684375,145.715625 C137.503125,145.715625 136.420313,145.420313 135.435938,144.829688 C134.451562,144.239062 133.70625,143.507812 133.2,142.635938 L133.2,142.635938 L130.921875,144.323437 C131.821875,145.645312 132.975,146.615625 134.38125,147.234375 C135.7875,147.853125 137.235938,148.1625 138.726562,148.1625 Z" id="path-5"></path>
        <filter x="-2.4%" y="-3.1%" width="104.7%" height="112.3%" filterUnits="objectBoundingBox" id="filter-6">
            <feOffset dx="0" dy="1" in="SourceAlpha" result="shadowOffsetOuter1"></feOffset>
            <feGaussianBlur stdDeviation="0.5" in="shadowOffsetOuter1" result="shadowBlurOuter1"></feGaussianBlur>
            <feColorMatrix values="0 0 0 0 0   0 0 0 0 0   0 0 0 0 0  0 0 0 0.5 0" type="matrix" in="shadowBlurOuter1"></feColorMatrix>
        </filter>
        <path d="M61.453125,117.773438 L61.453125,113.048438 L46.2234375,113.048438 L46.2234375,104.610938 L59.934375,104.610938 L59.934375,100.139063 L46.2234375,100.139063 L46.2234375,92.5453125 L60.69375,92.5453125 L60.69375,87.9046875 L40.9078125,87.9046875 L40.9078125,117.773438 L61.453125,117.773438 Z M72.759375,118.279687 C73.659375,118.279687 74.5523438,118.174219 75.4382812,117.963281 C76.3242188,117.752344 77.11875,117.400781 77.821875,116.908594 C78.525,116.416406 79.0945312,115.783594 79.5304687,115.010156 C79.9664063,114.236719 80.184375,113.2875 80.184375,112.1625 C80.184375,110.615625 79.6289062,109.385156 78.5179687,108.471094 C77.4070312,107.557031 75.684375,106.860938 73.35,106.382812 C71.71875,106.045312 70.5234375,105.630469 69.7640625,105.138281 C69.0046875,104.646094 68.625,103.935938 68.625,103.007812 C68.625,102.473438 68.7445312,102.009375 68.9835937,101.615625 C69.2226562,101.221875 69.5390625,100.898438 69.9328125,100.645312 C70.3265625,100.392187 70.7765625,100.209375 71.2828125,100.096875 C71.7890625,99.984375 72.2953125,99.928125 72.8015625,99.928125 C73.8984375,99.928125 74.8757812,100.188281 75.7335938,100.708594 C76.5914063,101.228906 77.23125,101.896875 77.653125,102.7125 L77.653125,102.7125 L79.846875,101.067188 C79.2,99.9421875 78.2296875,99.0703125 76.9359375,98.4515625 C75.6421875,97.8328125 74.30625,97.5234375 72.928125,97.5234375 C72.028125,97.5234375 71.15625,97.6359375 70.3125,97.8609375 C69.46875,98.0859375 68.7164062,98.4304688 68.0554687,98.8945312 C67.3945312,99.3585937 66.8671875,99.9492188 66.4734375,100.666406 C66.0796875,101.383594 65.8828125,102.248437 65.8828125,103.260938 C65.8828125,104.189063 66.065625,104.9625 66.43125,105.58125 C66.796875,106.2 67.2609375,106.713281 67.8234375,107.121094 C68.3859375,107.528906 68.9976562,107.838281 69.6585937,108.049219 C70.3195312,108.260156 70.9453125,108.435938 71.5359375,108.576563 C73.4203125,109.026563 74.8617187,109.511719 75.8601562,110.032031 C76.8585937,110.552344 77.3578125,111.332813 77.3578125,112.373437 C77.3578125,113.020312 77.23125,113.561719 76.978125,113.997656 C76.725,114.433594 76.3875,114.792187 75.965625,115.073437 C75.54375,115.354687 75.0515625,115.551563 74.4890625,115.664062 C73.9265625,115.776563 73.3359375,115.832813 72.7171875,115.832813 C71.5359375,115.832813 70.453125,115.5375 69.46875,114.946875 C68.484375,114.35625 67.7390625,113.625 67.2328125,112.753125 L67.2328125,112.753125 L64.9546875,114.440625 C65.8546875,115.7625 67.0078125,116.732812 68.4140625,117.351562 C69.8203125,117.970313 71.26875,118.279687 72.759375,118.279687 Z M91.40625,118.026563 C92.053125,118.026563 92.6507812,117.977344 93.1992188,117.878906 C93.7476562,117.780469 94.275,117.632812 94.78125,117.435937 L94.78125,117.435937 L94.6546875,114.946875 C94.2609375,115.14375 93.8460937,115.298438 93.4101562,115.410937 C92.9742187,115.523438 92.559375,115.579688 92.165625,115.579688 C91.74375,115.579688 91.35,115.530469 90.984375,115.432031 C90.61875,115.333594 90.3023438,115.150781 90.0351562,114.883594 C89.7679687,114.616406 89.5640625,114.24375 89.4234375,113.765625 C89.2828125,113.2875 89.2125,112.682812 89.2125,111.951562 L89.2125,111.951562 L89.2125,100.434375 L94.78125,100.434375 L94.78125,98.0296875 L89.2125,98.0296875 L89.2125,92.4609375 L86.34375,92.4609375 L86.34375,98.0296875 L82.2515625,98.0296875 L82.2515625,100.434375 L86.34375,100.434375 L86.34375,112.753125 C86.34375,113.85 86.5054688,114.735937 86.8289062,115.410937 C87.1523438,116.085938 87.5671875,116.620312 88.0734375,117.014063 C88.5796875,117.407813 89.128125,117.675 89.71875,117.815625 C90.309375,117.95625 90.871875,118.026563 91.40625,118.026563 Z M104.610938,118.279687 C106.214062,118.279687 107.585156,117.991406 108.724219,117.414844 C109.863281,116.838281 110.882812,115.889062 111.782813,114.567188 L111.782813,114.567188 L111.867188,114.567188 C111.867188,115.101562 111.895313,115.65 111.951562,116.2125 C112.007812,116.775 112.078125,117.295313 112.1625,117.773438 L112.1625,117.773438 L114.735938,117.773438 C114.623437,117.210938 114.539062,116.521875 114.482812,115.70625 C114.426562,114.890625 114.398438,114.103125 114.398438,113.34375 L114.398438,113.34375 L114.398438,104.695312 C114.398438,103.485938 114.201562,102.43125 113.807813,101.53125 C113.414062,100.63125 112.865625,99.8859375 112.1625,99.2953125 C111.459375,98.7046875 110.64375,98.2617188 109.715625,97.9664062 C108.7875,97.6710937 107.789062,97.5234375 106.720313,97.5234375 C105.032813,97.5234375 103.521094,97.790625 102.185156,98.325 C100.849219,98.859375 99.7734375,99.534375 98.9578125,100.35 L98.9578125,100.35 L100.560938,102.248438 C101.264063,101.545313 102.121875,100.982813 103.134375,100.560937 C104.146875,100.139062 105.24375,99.928125 106.425,99.928125 C108.140625,99.928125 109.448438,100.35 110.348437,101.19375 C111.248438,102.0375 111.698438,103.317188 111.698438,105.032813 L111.698438,105.032813 L111.698438,105.665625 C109.898438,105.665625 108.161719,105.728906 106.488281,105.855469 C104.814844,105.982031 103.33125,106.263281 102.0375,106.699219 C100.74375,107.135156 99.7101563,107.796094 98.9367188,108.682031 C98.1632813,109.567969 97.7765625,110.770313 97.7765625,112.289062 C97.7765625,113.385937 97.9945313,114.314062 98.4304688,115.073437 C98.8664063,115.832813 99.4148438,116.451563 100.075781,116.929688 C100.736719,117.407813 101.467969,117.752344 102.269531,117.963281 C103.071094,118.174219 103.851563,118.279687 104.610938,118.279687 Z M105.370313,115.917188 C104.807813,115.917188 104.252344,115.853906 103.703906,115.727344 C103.155469,115.600781 102.65625,115.389844 102.20625,115.094531 C101.75625,114.799219 101.397656,114.4125 101.130469,113.934375 C100.863281,113.45625 100.729687,112.865625 100.729687,112.1625 C100.729687,111.234375 101.039062,110.489063 101.657813,109.926563 C102.276563,109.364063 103.071094,108.935156 104.041406,108.639844 C105.011719,108.344531 106.094531,108.147656 107.289844,108.049219 C108.485156,107.950781 109.673438,107.901563 110.854688,107.901563 L110.854688,107.901563 L111.698438,107.901563 L111.698438,109.378125 C111.698438,110.25 111.557813,111.079688 111.276563,111.867188 C110.995313,112.654688 110.5875,113.350781 110.053125,113.955469 C109.51875,114.560156 108.857812,115.038281 108.070312,115.389844 C107.282813,115.741406 106.382812,115.917188 105.370313,115.917188 Z M126.885938,118.026563 C127.532813,118.026563 128.130469,117.977344 128.678906,117.878906 C129.227344,117.780469 129.754687,117.632812 130.260937,117.435937 L130.260937,117.435937 L130.134375,114.946875 C129.740625,115.14375 129.325781,115.298438 128.889844,115.410937 C128.453906,115.523438 128.039062,115.579688 127.645312,115.579688 C127.223437,115.579688 126.829688,115.530469 126.464063,115.432031 C126.098437,115.333594 125.782031,115.150781 125.514844,114.883594 C125.247656,114.616406 125.04375,114.24375 124.903125,113.765625 C124.7625,113.2875 124.692187,112.682812 124.692187,111.951562 L124.692187,111.951562 L124.692187,100.434375 L130.260937,100.434375 L130.260937,98.0296875 L124.692187,98.0296875 L124.692187,92.4609375 L121.823437,92.4609375 L121.823437,98.0296875 L117.73125,98.0296875 L117.73125,100.434375 L121.823437,100.434375 L121.823437,112.753125 C121.823437,113.85 121.985156,114.735937 122.308594,115.410937 C122.632031,116.085938 123.046875,116.620312 123.553125,117.014063 C124.059375,117.407813 124.607812,117.675 125.198438,117.815625 C125.789062,117.95625 126.351562,118.026563 126.885938,118.026563 Z M143.507812,118.279687 C145.139062,118.279687 146.664844,117.95625 148.085156,117.309375 C149.505469,116.6625 150.80625,115.59375 151.9875,114.103125 L151.9875,114.103125 L149.835938,112.415625 C149.273438,113.315625 148.450781,114.110156 147.367969,114.799219 C146.285156,115.488281 144.998437,115.832813 143.507812,115.832813 C142.495312,115.832813 141.553125,115.642969 140.68125,115.263281 C139.809375,114.883594 139.05,114.370313 138.403125,113.723438 C137.75625,113.076563 137.25,112.317188 136.884375,111.445312 C136.51875,110.573437 136.321875,109.645312 136.29375,108.660937 L136.29375,108.660937 L152.6625,108.660937 C152.690625,108.407813 152.704688,108.16875 152.704688,107.94375 L152.704688,107.94375 L152.704688,107.310938 C152.704688,105.960938 152.500781,104.695312 152.092969,103.514062 C151.685156,102.332812 151.0875,101.299219 150.3,100.413281 C149.5125,99.5273438 148.528125,98.8242188 147.346875,98.3039062 C146.165625,97.7835937 144.801562,97.5234375 143.254687,97.5234375 C141.848437,97.5234375 140.540625,97.7835937 139.33125,98.3039062 C138.121875,98.8242188 137.067187,99.5484375 136.167187,100.476562 C135.267187,101.404687 134.564062,102.501562 134.057812,103.767187 C133.551562,105.032813 133.298438,106.410938 133.298438,107.901563 C133.298438,109.392188 133.558594,110.770312 134.078906,112.035938 C134.599219,113.301562 135.309375,114.398438 136.209375,115.326562 C137.109375,116.254688 138.185156,116.978906 139.436719,117.499219 C140.688281,118.019531 142.045312,118.279687 143.507812,118.279687 Z M149.79375,106.382813 L136.335938,106.382813 C136.392188,105.539062 136.603125,104.730469 136.96875,103.957031 C137.334375,103.183594 137.826562,102.494531 138.445312,101.889844 C139.064062,101.285156 139.78125,100.807031 140.596875,100.455469 C141.4125,100.103906 142.298437,99.928125 143.254687,99.928125 C145.307812,99.928125 146.889844,100.539844 148.000781,101.763281 C149.111719,102.986719 149.709375,104.526563 149.79375,106.382813 L149.79375,106.382813 Z" id="path-7"></path>
        <filter x="-1.8%" y="-3.3%" width="103.6%" height="113.2%" filterUnits="objectBoundingBox" id="filter-8">
            <feOffset dx="0" dy="1" in="SourceAlpha" result="shadowOffsetOuter1"></feOffset>
            <feGaussianBlur stdDeviation="0.5" in="shadowOffsetOuter1" result="shadowBlurOuter1"></feGaussianBlur>
            <feColorMatrix values="0 0 0 0 0   0 0 0 0 0   0 0 0 0 0  0 0 0 0.5 0" type="matrix" in="shadowBlurOuter1"></feColorMatrix>
        </filter>
    </defs>
    <g id="Page-1" stroke="none" stroke-width="1" fill="none" fill-rule="evenodd">
        <g id="icon_60pt@3x">
            <g id="Icon">
                <mask id="mask-2" fill="white">
                    <use xlink:href="#path-1"></use>
                </mask>
                <g id="Mask" fill="black" fill-opacity="1">
                    <use filter="url(#filter-3)" xlink:href="#path-1"></use>
                </g>
                <rect id="Background" fill="url(#linearGradient-4)" fill-rule="evenodd" mask="url(#mask-2)" x="0" y="0" width="180" height="180"></rect>
                <polyline id="Stroke-200" stroke="#FFFFFF" stroke-width="2.8125" mask="url(#mask-2)" points="155.847656 67.5042187 89.8769531 21.09375 23.90625 67.5717188 23.90625 159.056719"></polyline>
                <g id="Labs" fill-rule="nonzero" mask="url(#mask-2)">
                    <use fill="black" fill-opacity="1" filter="url(#filter-6)" xlink:href="#path-5"></use>
                    <use fill="#FF5A00" xlink:href="#path-5"></use>
                </g>
                <g id="Estate" fill-rule="nonzero" mask="url(#mask-2)">
                    <use fill="black" fill-opacity="1" filter="url(#filter-8)" xlink:href="#path-7"></use>
                    <use fill="#FFFFFF" xlink:href="#path-7"></use>
                </g>
            </g>
        </g>
    </g>
</svg>